<svg width="24" height="24" viewBox="0 0 24 24" fill="currentColor" xmlns="http://www.w3.org/2000/svg">
<path d="M17.848 13.9213C17.8637 12.3524 19.166 11.4556 19.2312 11.4116C18.2721 10.0384 16.7909 9.8797 16.5173 9.85172C15.1187 9.73449 14.1561 10.6657 13.4339 10.6657C12.7229 10.6657 11.9701 9.84752 11.0857 9.87038C9.9219 9.88856 8.52834 10.5361 7.69614 11.7289C5.97825 14.1952 7.29415 17.8576 8.94183 20.2073C9.74312 21.3508 10.7058 22.5833 11.9649 22.5366C13.1593 22.4925 13.626 21.7828 15.0683 21.7828C16.5222 21.7828 16.9242 22.5366 18.2323 22.5132C19.5543 22.464 20.3533 21.3404 21.1444 20.197C21.6565 19.4604 22.148 18.3377 22.383 17.6534C22.3332 17.636 19.8951 16.7126 19.9231 13.9113L17.848 13.9213ZM15.0787 7.29166C15.6831 6.57077 16.0954 5.56525 15.9891 4.56842C15.132 4.60216 14.0886 5.12604 13.4754 5.82885C12.9243 6.45664 12.4419 7.47059 12.569 8.45501C13.5285 8.52763 14.5366 7.94002 15.0787 7.29166Z"/>
</svg>
