<svg viewBox="0 0 13 11" fill="none" xmlns="http://www.w3.org/2000/svg">
<path d="M0 5.52572C0 5.79923 0.1111 6.06153 0.3087 6.25493C0.5064 6.44832 0.7746 6.55697 1.0541 6.55697L9.40283 6.55697L6.63399 9.26572C6.44778 9.46121 6.34642 9.71978 6.35123 9.98694C6.35605 10.2541 6.46668 10.509 6.65982 10.698C6.85295 10.8869 7.11351 10.9951 7.3866 10.9998C7.65969 11.0046 7.9240 10.9054 8.12382 10.7232L12.6917 6.25447C12.8891 6.06111 13 5.79901 13 5.52572C13 5.25244 12.8891 4.99033 12.6917 4.79697L8.12382 0.328224C8.02732 0.226904 7.91094 0.145639 7.78164 0.0892749C7.65233 0.0329109 7.51275 0.00260333 7.37121 0.000160246C7.22967 -0.00228284 7.08908 0.0231884 6.95782 0.0750548C6.82656 0.126921 6.70733 0.20412 6.60723 0.302046C6.50713 0.399972 6.42822 0.516618 6.3752 0.645027C6.32218 0.773436 6.29615 0.910976 6.29865 1.04944C6.30114 1.18791 6.33212 1.32446 6.38974 1.45096C6.44735 1.57746 6.53042 1.69131 6.63399 1.78572L9.40283 4.49447L1.0541 4.49447C0.4723 4.49447 0 4.95647 0 5.52572Z" fill="#171612" fill-opacity="0.7"/>
</svg>
