<svg viewBox="0 0 13 11" fill="none" xmlns="http://www.w3.org/2000/svg">
<path d="M13 5.52572C13 5.79923 12.8889 6.06153 12.6913 6.25493C12.4936 6.44832 12.2254 6.55697 11.9459 6.55697L3.59717 6.55697L6.36601 9.26572C6.55222 9.46121 6.65358 9.71978 6.64877 9.98694C6.64395 10.2541 6.53332 10.509 6.34018 10.698C6.14705 10.8869 5.88649 10.9951 5.6134 10.9998C5.34031 11.0046 5.076 10.9054 4.87618 10.7232L0.308284 6.25447C0.11088 6.06111 2.53483e-07 5.79901 2.41537e-07 5.52572C2.29592e-07 5.25244 0.11088 4.99033 0.308284 4.79697L4.87618 0.328224C4.97268 0.226904 5.08906 0.145639 5.21836 0.0892749C5.34767 0.0329109 5.48725 0.00260333 5.62879 0.000160246C5.77033 -0.00228284 5.91092 0.0231884 6.04218 0.0750548C6.17344 0.126921 6.29267 0.20412 6.39277 0.302046C6.49287 0.399972 6.57178 0.516618 6.6248 0.645027C6.67782 0.773436 6.70385 0.910976 6.70135 1.04944C6.69886 1.18791 6.66788 1.32446 6.61026 1.45096C6.55265 1.57746 6.46958 1.69131 6.36601 1.78572L3.59717 4.49447L11.9459 4.49447C12.5277 4.49447 13 4.95647 13 5.52572Z" fill="#171612" fill-opacity="0.7"/>
</svg>
