<svg viewBox="0 0 28 28" fill="none" xmlns="http://www.w3.org/2000/svg">
<path d="M10.0041 19.8245H23.6801C24.1366 19.8245 24.5351 19.4495 24.5351 18.9455C24.5351 18.4415 24.1366 18.0665 23.6801 18.0665H10.2031C9.53506 18.0665 9.12506 17.5975 9.01956 16.883L8.83206 15.6525H23.7031C25.4141 15.6525 26.2931 14.5975 26.5391 12.922L27.4766 6.7225C27.5017 6.57532 27.5174 6.42668 27.5236 6.2775C27.5236 5.715 27.1016 5.328 26.4571 5.328H7.32056L7.09756 3.84C6.98056 2.9375 6.65256 2.48 5.45756 2.48H1.34356C0.875062 2.48 0.476562 2.891 0.476562 3.36C0.476562 3.84 0.875062 4.2505 1.34406 4.2505H5.30456L7.17956 17.1175C7.42606 18.7815 8.30456 19.8245 10.0041 19.8245ZM25.5311 7.0975L24.7001 12.711C24.6061 13.4375 24.2196 13.883 23.5281 13.883L8.57506 13.8945L7.57856 7.0975H25.5311ZM10.9301 25.52C11.18 25.5221 11.4278 25.4744 11.659 25.3797C11.8903 25.285 12.1004 25.1453 12.2771 24.9685C12.4538 24.7918 12.5936 24.5817 12.6883 24.3505C12.7829 24.1192 12.8306 23.8714 12.8286 23.6215C12.8297 23.3719 12.7814 23.1245 12.6863 22.8936C12.5913 22.6628 12.4515 22.4531 12.275 22.2765C12.0985 22.1 11.8888 21.9602 11.6579 21.8652C11.4271 21.7702 11.1797 21.7219 10.9301 21.723C9.86406 21.723 9.02006 22.567 9.02006 23.6215C9.02006 24.688 9.86406 25.52 10.9301 25.52ZM21.8871 25.52C22.9536 25.52 23.7971 24.688 23.7971 23.6215C23.7971 22.5665 22.9536 21.723 21.8871 21.723C20.8326 21.723 19.9771 22.567 19.9771 23.6215C19.9771 24.688 20.8326 25.52 21.8871 25.52Z" fill="url(#paint0_linear_2130_1362)"/>
<defs>
<linearGradient id="paint0_linear_2130_1362" x1="27.5236" y1="2.48" x2="4.77653" y2="29.183" gradientUnits="userSpaceOnUse">
<stop offset="0.419524" stop-color="#F28F0D"/>
<stop offset="1" stop-color="#F7262C"/>
</linearGradient>
</defs>
</svg>
