<svg viewBox="0 0 28 28" fill="none" xmlns="http://www.w3.org/2000/svg">
<path d="M14.0003 14C17.222 14 19.8337 11.3883 19.8337 8.16667C19.8337 4.945 17.222 2.33333 14.0003 2.33333C10.7787 2.33333 8.16699 4.945 8.16699 8.16667C8.16699 11.3883 10.7787 14 14.0003 14Z" stroke="url(#paint0_linear_2130_1374)" stroke-width="2"/>
<path d="M19.8336 16.3333H20.2442C21.0972 16.3336 21.9206 16.6453 22.56 17.2098C23.1993 17.7744 23.6105 18.553 23.7162 19.3993L24.1724 23.044C24.2134 23.3723 24.1842 23.7056 24.0865 24.0218C23.9889 24.338 23.8251 24.6297 23.6061 24.8778C23.3871 25.1258 23.1179 25.3244 22.8162 25.4604C22.5146 25.5964 22.1875 25.6667 21.8566 25.6667H6.1439C5.81301 25.6667 5.48589 25.5964 5.18425 25.4604C4.88261 25.3244 4.61335 25.1258 4.39434 24.8778C4.17532 24.6297 4.01157 24.338 3.91394 24.0218C3.81631 23.7056 3.78704 23.3723 3.82807 23.044L4.28307 19.3993C4.38888 18.5526 4.80039 17.7737 5.4402 17.2091C6.08002 16.6444 6.90407 16.333 7.7574 16.3333H8.1669" stroke="url(#paint1_linear_2130_1374)" stroke-width="2" stroke-linecap="round" stroke-linejoin="round"/>
<defs>
<linearGradient id="paint0_linear_2130_1374" x1="19.8337" y1="2.33333" x2="8.16699" y2="14" gradientUnits="userSpaceOnUse">
<stop offset="0.419524" stop-color="#F28F0D"/>
<stop offset="1" stop-color="#F7262C"/>
</linearGradient>
<linearGradient id="paint1_linear_2130_1374" x1="24.1904" y1="16.3333" x2="17.1239" y2="31.7638" gradientUnits="userSpaceOnUse">
<stop offset="0.419524" stop-color="#F28F0D"/>
<stop offset="1" stop-color="#F7262C"/>
</linearGradient>
</defs>
</svg>
