<svg width="24" height="24" viewBox="0 0 24 24" fill="currentColor" xmlns="http://www.w3.org/2000/svg">
<path d="M12.0117 2.08331C6.54922 2.08331 2.09375 6.54112 2.09375 12.0121C2.09375 13.916 2.64687 15.6883 3.61641 17.2148L2.24766 22.0833L7.33125 20.7818C8.76797 21.6888 10.3758 22.1462 12.007 22.1462C17.4719 22.1462 21.9273 17.6883 21.9273 12.2173C21.9273 6.74628 17.4719 2.28847 12.0094 2.08331H12.0117ZM12.0117 3.75472C16.5914 3.75472 20.2523 7.41797 20.2523 12.0121C20.2523 16.6062 16.5891 20.4717 12.007 20.4717C10.6055 20.4717 9.20625 20.0826 8.08594 19.3498L7.00078 20.1443L8.29922 17.8095C7.26562 16.3263 6.64922 14.5084 6.64922 12.5975C6.64922 12.4411 6.66328 12.2958 6.67266 12.1417C6.69609 12.1487 7.74141 12.4939 7.74141 12.4939C8.01875 12.5853 8.16172 12.8792 8.07734 13.1614C8.07734 13.1614 7.70859 14.3983 7.64375 14.6186C7.57578 14.8529 7.69766 15.1059 7.91562 15.2442C7.91562 15.2442 9.53906 16.2731 11.5 16.6742C12.1633 16.8099 12.3883 16.1428 12.3883 16.1428C12.5805 15.5409 13.1406 15.1957 13.75 15.3479C13.75 15.3479 14.7891 15.6026 15.1008 15.6799C15.4125 15.7572 15.5929 16.0721 15.5156 16.3869C15.5156 16.3869 15.1781 17.751 15.0141 18.0681C14.7797 18.5205 14.2883 18.6635 13.8836 18.5347C12.3797 18.0531 8.87813 16.2731 7.15312 12.3316C6.96094 11.8908 7.12031 11.373 7.51406 11.1411C7.51406 11.1411 8.48437 10.5695 8.76797 10.3869C9.07266 10.1901 9.20859 9.80531 9.07266 9.4742C9.07266 9.4742 8.43516 7.92797 8.35547 7.76641C8.19609 7.44219 7.80937 7.30641 7.48125 7.46562C7.48125 7.46562 6.55781 7.91156 6.37266 8.02641C5.77266 8.39938 5.4375 9.08016 5.51016 9.77516C5.51484 9.82438 5.51953 9.87359 5.52656 9.92281C5.73281 12.553 7.33828 15.5898 9.92344 17.4084C9.92344 17.4084 11.025 18.1292 12.007 18.1292C15.0656 18.1292 17.9109 16.5921 17.9109 12.0121C17.9109 8.71266 15.2648 6.02672 12.0117 6.02672V3.75472Z"/>
</svg>
